15_ID_stride5.mot
nRows=13
nColumns=38

name 15_ID_stride5.mot
datacolumns 38
datarows 13
range 2.8600000000 2.9200000000
endheader
time	pelvis_tilt_moment	pelvis_list_moment	pelvis_rotation_moment	pelvis_tx_force	pelvis_ty_force	pelvis_tz_force	hip_flexion_r_moment	hip_adduction_r_moment	hip_rotation_r_moment	knee_angle_r_moment	ankle_angle_r_moment	subtalar_angle_r_moment	mtp_angle_r_moment	hip_flexion_l_moment	hip_adduction_l_moment	hip_rotation_l_moment	knee_angle_l_moment	ankle_angle_l_moment	subtalar_angle_l_moment	mtp_angle_l_moment	lumbar_extension_moment	lumbar_bending_moment	lumbar_rotation_moment	arm_flex_r_moment	arm_add_r_moment	arm_rot_r_moment	elbow_flex_r_moment	pro_sup_r_moment	wrist_flex_r_moment	wrist_dev_r_moment	arm_flex_l_moment	arm_add_l_moment	arm_rot_l_moment	elbow_flex_l_moment	pro_sup_l_moment	wrist_flex_l_moment	wrist_dev_l_moment
        2.8600000000	       -0.4221600138	       -7.5386959146	        6.1201842992	       34.7782803985	      400.9367070266	      169.4311465426	       51.7132369732	        5.9823210138	       -1.5228139570	       15.4516624303	        3.7106292739	       -0.3668879624	        0.1791545493	      -35.0365451506	       28.2701160822	       -4.7717152911	      -31.1843778613	        7.8142584826	       -2.3332310187	        0.2018419461	        1.1493720058	       12.0290182160	       -0.1927138379	       -6.9427945058	        0.0996864082	        0.8545028805	       -1.1695500288	        0.0354407206	        0.0554749022	        0.1725784787	       -7.2855552202	       -0.0652602008	        0.7958763263	       -0.9674782758	        0.0392001252	        0.0615465972	        0.1643281469	
        2.8650000000	      -22.0468319000	       36.1079012946	       27.7037021722	       42.8768331949	      408.9926581144	      147.6238166790	       50.3431186586	        4.4244881782	       -0.9413356110	       15.2711782342	        3.6281399881	       -0.3526685362	        0.1734295187	      -12.1914494924	       -3.7104825676	       -4.8307234598	       -9.0695291795	       10.3219458410	       -2.6629296354	        0.2653046680	       11.1498652716	       15.8307974532	        7.8237552455	       -6.9629540733	        0.5867890008	        1.5723809834	       -0.6652253533	        0.0511864710	        0.1509840575	        0.1583809265	       -8.9534811766	       -0.3180839788	        0.3525170242	       -0.6915262597	        0.0141776202	        0.0106867493	        0.1290090873	
        2.8700000000	      -52.3659328342	       69.1097971717	       48.4796515147	       40.4023653432	      322.0956283544	       72.1445478780	       54.0619733997	        3.9457208325	       -0.4976436771	       15.5921365343	        3.6300984827	       -0.3514659984	        0.1726058517	       -5.7187371441	      -44.0476798869	        0.3345147789	        7.4976546460	        7.5444534847	        0.9762151458	        0.3157438255	       18.3097298103	       19.9585655825	       14.5472308266	       -6.0896415293	        0.8370482644	        2.0207410023	       -0.0287064826	        0.0579136322	        0.2215122761	        0.1150091144	       -9.7216478369	       -0.3369945614	        0.0158207246	       -0.2598929654	       -0.0096349683	       -0.0272953938	        0.0770346736	
        2.8750000000	      -77.0655835963	       81.8106721510	       66.1051992960	       22.8291173145	      161.6913891199	      -27.4507030815	       60.9737885383	        4.7406956960	       -0.4443785674	       16.4016410598	        3.7168669936	       -0.3551618203	        0.1770120883	      -18.8923050418	      -81.2027004871	        3.7526286991	       19.8236137464	       -1.6265878415	        4.8432492237	        0.3425123793	       18.7021322220	       20.9285225474	       19.1498655612	       -4.6304374214	        0.9556895353	        2.1937449415	        0.5875914896	        0.0555148163	        0.2617760344	        0.0637471891	       -9.2449470764	       -0.2386933873	       -0.2627910401	        0.1946234041	       -0.0306026724	       -0.0560031938	        0.0217446571	
        2.8800000000	      -78.8502780906	       71.5667420086	       78.0299479556	       -3.3271744356	      -31.8764109264	     -123.2173546253	       68.3517887140	        6.0834471580	       -0.6223883395	       17.4812456648	        3.8350470820	       -0.3547080764	        0.1842299149	      -47.9381688645	     -104.4741345633	        2.3351851089	       24.0432643603	      -17.6004733381	        7.0303729948	        0.3398739747	       15.6234737626	       18.8720239566	       21.0642621987	       -2.8693950425	        1.0777251909	        2.1722166223	        1.1171354470	        0.0486026670	        0.2722359748	        0.0124564166	       -8.0129392152	       -0.1966157661	       -0.5063771175	        0.6189710942	       -0.0478666615	       -0.0775591912	       -0.0300499920	
        2.8850000000	      -69.7993971908	       34.8916311550	       81.8617020541	      -28.5494852605	     -215.2363005063	     -167.6943145054	       72.9208861285	        7.2512143836	       -1.0227656640	       18.5830420924	        3.9269809423	       -0.3489951723	        0.1920412907	      -94.0798819083	     -106.3239085593	       -4.6334121294	       21.5917955373	      -39.5187936237	        6.6810815004	        0.3183731909	        9.6026361532	       13.5155858628	       20.8925808511	       -1.1810280022	        1.2484388323	        2.0643645537	        1.5721213181	        0.0374335259	        0.2691833168	       -0.0365011405	       -6.2602339556	       -0.2231830089	       -0.6908191404	        1.0276626215	       -0.0611551761	       -0.0834348343	       -0.0772587780	
        2.8900000000	      -36.3453311841	      -20.5312700160	       81.7253838080	      -37.6603549382	     -332.7130769689	     -171.7989588848	       73.8888213190	        7.6016430090	       -1.4473175821	       19.5059695345	        3.9581949653	       -0.3344889400	        0.1994860253	     -146.0250938605	      -94.4644364894	      -18.7689094293	       15.7082125460	      -64.0482921549	        3.6388403205	        0.2713678028	        7.2894426985	        7.7382659367	       18.8045613142	        0.0813437110	        1.4314430355	        1.8659816414	        2.0379446856	        0.0220451142	        0.2522833522	       -0.0888899379	       -4.4545808186	       -0.2541793471	       -0.7428811078	        1.5010229141	       -0.0704836597	       -0.0805432313	       -0.1256542210	
        2.8950000000	        7.4673414978	      -72.4667463439	       75.0282702123	      -34.7136439692	     -389.1563236028	     -128.1831410151	       71.3287827211	        7.2468045905	       -1.8179904312	       20.2120803450	        3.9597222568	       -0.3144005772	        0.2066816223	     -189.7757156533	      -66.8262767781	      -36.3592876448	       13.7028576400	      -87.7216780869	       -1.1705215829	        0.2119511640	        9.6993709005	        3.5574954027	       14.7490037568	        0.9058384488	        1.5651202518	        1.5899650725	        2.6110543708	        0.0004257337	        0.2271637320	       -0.1528821027	       -2.7895799097	       -0.1393397023	       -0.6244921508	        2.1432455218	       -0.0768818078	       -0.0452262407	       -0.1824404711	
        2.9000000000	       46.2396881857	      -84.2811599588	       65.4710300299	      -18.9708005472	     -361.2474669047	      -79.9862246765	       67.5455268346	        6.4260614983	       -2.1409874055	       20.5709941101	        3.9540370968	       -0.2915123823	        0.2152399572	     -197.4400548419	      -40.8345474617	      -47.6435963981	       24.2499065888	     -104.9316574445	       -3.5357055501	        0.1526990185	       18.9498566605	        4.9248216037	        9.6423808732	        1.2197866103	        1.4817998224	        1.1939491142	        3.4241649199	       -0.0301469055	        0.1959177012	       -0.2415745270	       -1.3106084675	        0.2816788685	       -0.2873775532	        3.0701645866	       -0.0807551629	        0.0165878617	       -0.2594119468	
        2.9050000000	       64.1811326099	      -73.1363379210	       53.1811444984	        7.8015829499	     -270.1791314941	      -49.6387784820	       64.0990138421	        5.5588970440	       -2.5139961812	       20.5496153475	        3.9577738580	       -0.2631227011	        0.2256735088	     -188.3275102160	      -26.2331279181	      -47.4274971770	       53.0641557905	     -113.4351867720	       -2.9669526861	        0.1010207163	       37.2365364645	       11.1845410958	        3.6264391241	        1.2507809975	        1.1553719984	        0.6433752479	        4.5248201500	       -0.0713902894	        0.1575099934	       -0.3602284723	        0.0661489115	        1.1813989400	        0.3394584372	        4.3333266442	       -0.0829979694	        0.1115158499	       -0.3609525292	
        2.9100000000	       65.0360910523	      -25.4639365208	       40.7240601998	       31.0675861950	     -129.9465958188	      -43.6493809935	       62.5484875899	        5.3329159644	       -3.0492368238	       20.0915493481	        3.9687537043	       -0.2244526087	        0.2374160499	     -152.5891014425	      -24.0362899880	      -36.0233641587	       93.1799452099	     -115.5638424850	        0.9215280576	        0.0629485949	       61.4393309594	       23.5780988405	       -2.7510397571	        1.1720887066	        0.5389423711	       -0.0439156490	        5.8615370918	       -0.1212644331	        0.1135186135	       -0.5040187743	        1.4012375983	        2.4957435445	        1.1725662158	        5.8661983593	       -0.0841493254	        0.2302580057	       -0.4833960711	
        2.9150000000	       42.3168498140	       28.8848171642	       32.6988000505	       42.2968296724	       24.2714778937	      -57.9184712652	       62.1373174750	        5.9551914577	       -3.8420833689	       18.9728502226	        3.9680448963	       -0.1679377004	        0.2474826697	     -117.6789070744	      -36.0927689060	      -17.0955439248	      131.4980018483	     -115.7918640214	        5.3842598685	        0.0407148756	       88.2839603825	       39.1517377348	       -8.9562882352	        1.0138266082	       -0.2412322022	       -0.7940578588	        7.2784429759	       -0.1743764206	        0.0675576663	       -0.6568404591	        2.6634482878	        4.0380916002	        2.1013045841	        7.4961121930	       -0.0845262787	        0.3583614888	       -0.6133919767	
        2.9200000000	        8.7236187926	       73.1616851845	       31.3575471531	       38.6789146638	      168.5283616465	      -80.9022491201	       61.8574907206	        7.7130750602	       -4.8813581968	       17.2438118403	        3.8752719910	       -0.0883346568	        0.2531683076	      -97.1533759036	      -57.5001653166	       -1.1855260276	      159.5404200192	     -122.0997326953	        7.8700951995	        0.0313068344	      114.3422366713	       55.1257934617	      -14.5524465002	        0.8033171873	       -1.0443612256	       -1.5122743881	        8.6026972832	       -0.2245006333	        0.0242083530	       -0.8002168991	        3.7759742403	        5.5695884272	        3.0026337061	        9.0306764261	       -0.0836226004	        0.4804694828	       -0.7355183214	
